<mxfile host="app.diagrams.net" modified="2020-11-18T10:24:08.424Z" agent="5.0 (Windows NT 6.3; Win64; x64) AppleWebKit/537.36 (KHTML, like Gecko) Chrome/86.0.4240.198 Safari/537.36" etag="7pYOAS3f-qVSMQl7YB48" version="13.9.9" type="github">
  <diagram id="YeYr4XeDuu_iai2TUxlF" name="Page-1">
    <mxGraphModel dx="1102" dy="613" grid="1" gridSize="10" guides="1" tooltips="1" connect="1" arrows="1" fold="1" page="1" pageScale="1" pageWidth="827" pageHeight="1169" math="0" shadow="0">
      <root>
        <mxCell id="0" />
        <mxCell id="1" parent="0" />
        <mxCell id="-04ba1qOaD6ayBeMM4Z4-1" value="开始" style="ellipse;whiteSpace=wrap;html=1;fontFamily=Helvetica;" vertex="1" parent="1">
          <mxGeometry x="340" y="30" width="120" height="80" as="geometry" />
        </mxCell>
        <mxCell id="-04ba1qOaD6ayBeMM4Z4-2" value="" style="endArrow=classic;html=1;fontFamily=Helvetica;exitX=0.5;exitY=1;exitDx=0;exitDy=0;" edge="1" parent="1" source="-04ba1qOaD6ayBeMM4Z4-1">
          <mxGeometry width="50" height="50" relative="1" as="geometry">
            <mxPoint x="389" y="190" as="sourcePoint" />
            <mxPoint x="400" y="200" as="targetPoint" />
          </mxGeometry>
        </mxCell>
        <mxCell id="-04ba1qOaD6ayBeMM4Z4-3" value="" style="rounded=0;whiteSpace=wrap;html=1;fontFamily=Helvetica;" vertex="1" parent="1">
          <mxGeometry x="330" y="200" width="140" height="80" as="geometry" />
        </mxCell>
        <mxCell id="-04ba1qOaD6ayBeMM4Z4-4" value="" style="endArrow=classic;html=1;fontFamily=Helvetica;entryX=0.5;entryY=0;entryDx=0;entryDy=0;" edge="1" parent="1" source="-04ba1qOaD6ayBeMM4Z4-3" target="-04ba1qOaD6ayBeMM4Z4-5">
          <mxGeometry width="50" height="50" relative="1" as="geometry">
            <mxPoint x="390" y="240" as="sourcePoint" />
            <mxPoint x="400" y="370" as="targetPoint" />
            <Array as="points">
              <mxPoint x="400" y="310" />
              <mxPoint x="390" y="330" />
            </Array>
          </mxGeometry>
        </mxCell>
        <mxCell id="-04ba1qOaD6ayBeMM4Z4-5" value="结束&lt;br&gt;" style="ellipse;whiteSpace=wrap;html=1;fontFamily=Helvetica;" vertex="1" parent="1">
          <mxGeometry x="340" y="390" width="120" height="80" as="geometry" />
        </mxCell>
      </root>
    </mxGraphModel>
  </diagram>
</mxfile>
